<svg xmlns="http://www.w3.org/2000/svg" version="1.1" xmlns:xlink="http://www.w3.org/1999/xlink" xmlns:svgjs="http://svgjs.dev/svgjs" width="800" height="800"><svg xmlns="http://www.w3.org/2000/svg" version="1.1" viewBox="0 0 800 800">
  <defs>
    <style>
      .cls-1 {
        fill: #fff;
      }

      .cls-2 {
        fill: #b90000;
      }

      .cls-2, .cls-3 {
        fill-rule: evenodd;
      }
    </style>
  </defs>
  <!-- Generator: Adobe Illustrator 28.7.1, SVG Export Plug-In . SVG Version: 1.2.0 Build 142)  -->
  <g>
    <g id="SvgjsG1310">
      <g>
        <path class="cls-1" d="M218.5,755.1c-32.2,0-58.4-26.2-58.4-58.4V104.3c0-32.2,26.2-58.4,58.4-58.4h363.9c32.2,0,58.4,26.2,58.4,58.4v593.3c0,31.7-25.8,57.5-57.5,57.5H218.5Z"></path>
        <path d="M582.5,57.9c25.6,0,46.4,20.8,46.4,46.4v593.3c0,25.1-20.4,45.5-45.5,45.5H218.5c-25.6,0-46.4-20.8-46.4-46.4V104.3c0-25.6,20.8-46.4,46.4-46.4h363.9M582.5,33.9H218.5c-38.8,0-70.4,31.6-70.4,70.4v592.3c0,38.8,31.6,70.4,70.4,70.4h364.9c38.3,0,69.5-31.2,69.5-69.5V104.3c0-38.8-31.6-70.4-70.4-70.4h0Z"></path>
      </g>
      <g id="SvgjsG1309">
        <g id="SvgjsG1308">
          <g>
            <path class="cls-2" d="M361.9,400.2c-2.9,3.6-3.3,11.5-.3,13.8,6.5,5.4,8.9,6.9,11,10.2-23.5,1.9-56,.2-107.6-8-43-7.7-36,21.6-2.8,27.5h0c150.7,16,141.2-23.4,267.3-27.6,28-4.1,26.2-25.9-.7-23.8-44.5,1.1-69.1,7.2-88.5,13.8-1.5-7.1.6-11.9,7.7-21.7,8.3-9.4,16.2-11.5,8.9-24.4l-21-36.9h0c-3.1-3.2-4.9-4.4-9.2,0l-22.8,23.1c-2,2.2-2,5.5-.4,7.4l13.6,13.1c6.5,6.3,8.1,10.9,4.3,18.3-4,11.3-7.2,22.7-8.5,30.9-4.5,1.5-9.2,2.9-14.2,4.1-1.7-2.6-3-5.5-4.6-11.2-1.7-13.8-1.2-15.1,3.6-29.3h0c1.9-5.8-11.9-15.1-19.6-5.2-7.2,11.1-9.3,18-16.1,25.9Z"></path>
            <path class="cls-2" d="M518.9,572.3c-13.5-.6-27.6-.3-42.1.4-.3-39.5,2.1-81.6,4.4-116.7.9-11.1-4.3-13.6-12.1-13.6h0c-3.5,0-7.6.5-11.9,1-38.6,6.3-66.3,20.3-130.3,18-8.7,0-16,4.6-15.7,11.3.6,14.7,11.4,92.3,12.3,99.3,1.3,9.5,14.5,10.4,16.3,2,.3-1.5.3-5.9.1-11.9.8-1.7,2.1-3,3.4-3.2l22.1-2-1.6,26.8c-15.7,1.6-31.3,3-46.3,3.9-5.7-16-11.8-32.9-16.8-47.2h0c-7.1-21.3-26.8-17.1-23.1,1.3,5.7,17.8,10.2,33.3,13.9,46.7-19.5,0-37.7-1.3-54.2-4.9h0c-12.4-1.9-11.3,13.5-4.9,16.8,21.8,9.6,43.9,13.7,66.1,14.5,4.7,18.7,7,29.6,8.5,32.1,15,25.3,25.8,20.7,28,.7,24.6,5.1,36.3.7,49.4-6.3,10.1,10.9,24,16.5,35.6,21.6,10,4.8,21,4.2,28.2,4.5,37.3.5,72.1-13.8,89.7-16,5.1-.8,11.1-9.7,13.4-13.8,14.4-23.6,8.4-27.6-1.6-52.2-5.7-9.3-22.2-11.9-30.9-13.1ZM429.3,610.3c-8,.3-15.4,1-22.6,2.1l-.6-10.6c7.8-1.5,15.5-3,23.1-4.3,0,4.8,0,9.1,0,12.9ZM405,579.1l-1.3-25.7,24.3-2.2c.9,0,1.5.8,2,2-.2,7.9-.3,15.8-.4,23.2-8.2.8-16.3,1.7-24.5,2.6ZM401.6,512.8l27.3-2.3c2.5-.2,3,18.4-.6,18.7l-25.8,2.2-1-18.6ZM429.1,467.3c8.4-2.1,3,23.5.1,23.6l-28.7,2.2-1.1-20.8c8.6-1.4,17.9-3.1,29.6-5ZM339.8,478.1c12.1-.4,21.8-1,30.4-1.8l-1.1,19.3-27.2,2.1c-7.6-1.5-7.2-19.4-2.1-19.6ZM343.3,536.4c-6.1-1.7-6.5-17.8-1.2-18.5l25.8-2.2-1.1,18.7-23.6,2ZM331.4,627.5c-1.3-4-2.8-8.5-4.5-13.5,12-.9,24-2.5,36-4.4.4,4,1.4,7.8,2.7,11.2-11.4,2.7-22.6,5.3-34.3,6.7ZM507.6,629.8c-32,14.6-24.5.1-60.4,16.7-3.4,2.2-12.3,3.9-15.6,2.5-11.9-4-21.9-10.5-30.1-16.7,7.5-3.6,16.4-7.2,28.1-10.1,0,0,0,.2,0,.2.2,2.3,0,4.6,2.3,6.7,5.4,4.5,35.8,2,43.7-2.9,2.2-1.6,3-2.3,3.3-5.7-.8-9.3-1.3-19-1.7-29,6.6-.3,13.1-.3,19.6.1,3.1.5,7.9,2.3,12.3,4.8,14.2,7.5,5.5,29-1.4,33.4Z"></path>
          </g>
          <g id="SvgjsG1307">
            <path id="SvgjsPath1306" class="cls-3" d="M351.7,224c-7.3-1.3-20.4,29.3-25.7,33.2-30.4,22-54.1,24-87.5,33.8-17.5,5.2-15.6,22.2,4.7,18.4,33.6-7.7,132.8-16.1,141.7-57.6,2.8-15.9-19-23.7-33.2-27.8h0Z"></path>
            <path id="SvgjsPath1305" class="cls-3" d="M366.3,155.8c2.4-7.5,22.3-20.2,36.1-22.6,14-1.5,40.6,68.2,50.9,78.4,19.7,17.8,126.4,72.4,119,99.1-4.5,15-84.9-26.7-126.9-49.6-23.6-16.8-42.1-45.4-53.8-79.1-2.1-7.5-27.8-19-25.3-26.1h0Z"></path>
          </g>
        </g>
      </g>
    </g>
  </g>
</svg><style>@media (prefers-color-scheme: light) { :root { filter: none; } }
@media (prefers-color-scheme: dark) { :root { filter: none; } }
</style></svg>