<?xml version="1.0" encoding="UTF-8"?>
<svg xmlns="http://www.w3.org/2000/svg" version="1.1" xmlns:cc="http://creativecommons.org/ns#" xmlns:dc="http://purl.org/dc/elements/1.1/" xmlns:inkscape="http://www.inkscape.org/namespaces/inkscape" xmlns:osb="http://www.openswatchbook.org/uri/2009/osb" xmlns:rdf="http://www.w3.org/1999/02/22-rdf-syntax-ns#" xmlns:sodipodi="http://sodipodi.sourceforge.net/DTD/sodipodi-0.dtd" xmlns:svg="http://www.w3.org/2000/svg" viewBox="0 0 300 400">
  <defs>
    <style>
      .cls-1, .cls-2, .cls-3, .cls-4, .cls-5, .cls-6 {
        stroke-width: 0px;
      }

      .cls-1, .cls-7, .cls-8, .cls-4, .cls-9 {
        fill-rule: evenodd;
      }

      .cls-1, .cls-5 {
        fill: #fff;
      }

      .cls-2, .cls-7, .cls-8, .cls-4, .cls-9 {
        fill: #000;
      }

      .cls-7 {
        stroke-width: .5px;
      }

      .cls-7, .cls-8, .cls-9 {
        stroke: #000;
      }

      .cls-3 {
        fill: #004900;
      }

      .cls-8 {
        stroke-width: .6px;
      }

      .cls-9 {
        stroke-width: .9px;
      }

      .cls-10 {
        display: none;
        fill: none;
        stroke: #b93c3c;
      }

      .cls-6 {
        fill: #b93c3c;
      }
    </style>
  </defs>
  <g id="svg2" inkscape:export-filename="C:\Users\Fluffy\Documents\Projects\ExtraRiichi\Sou1.png" inkscape:export-xdpi="180" sodipodi:docname="Sou1.svg">
    <path id="path8025" class="cls-6" d="M177.6,308.1l3.2,29.2c-8.5,1.5-15.1-.3-21.1-.9,5.1,6.5,12.4,9.5,21.2,12.2l1.4,20.8c-12.8.6-14.9.8-24.8,1.5,9.4,1.6,12.8,2.8,19.4,4.5-10,4.3-12.9,5.7-26.4,12.5,14.5-4,19.8-4.4,31.1-7.6-4.1,5.1-8.8,7.4-11.8,15.4,11.3-5.4,19.5-13.2,25-17.8,5.5-2.2,9.2-4.3,17-7.7-4-1.5-10.6-1.7-17.4-1.9l-2.1-21.7c11.3-4.8,18.1-12.9,23.5-16.5-8.6,3.9-14.3,4.3-23.9,5.5l-3.1-29.7-11,2.2Z" inkscape:connector-curvature="0" sodipodi:nodetypes="cccccccccccccccccc"/>
    <path id="path8025-2" data-name="path8025" class="cls-6" d="M119.1,307.8l-3,29.2c-8.6-.5-14.6-3.8-20.4-5.8,3.6,7.5,10.1,12.1,18.1,16.7l-3,20.6c-12.7-2.3-14.7-2.7-24.5-4.2,8.8,3.7,11.9,5.7,18,8.8-10.7,1.9-13.8,2.5-28.4,6.1,15-.6,20.2.2,32-.2-5.1,4-10.1,5.2-14.7,12.3,12.1-2.6,21.8-8.4,28.1-11.6,5.8-.9,9.9-2.1,18.2-3.6-3.6-2.4-10-4.1-16.6-5.8l2.5-21.7c12-2.1,20.3-8.4,26.4-10.7-9.2,1.8-14.9.9-24.5-.1l3.2-29.7-11.2-.5Z" inkscape:connector-curvature="0" sodipodi:nodetypes="cccccccccccccccccc"/>
    <path id="path8021" class="cls-4" d="M78.3,234.3c-12.8-6.5-16.2-11.1-20.2-15.8-8.3-9.5-16.4-14.9-26.1-21.5,8.3,7.6,15.6,13.8,22.8,27l-23.1-4.6c16.9,6.2,29.6,14.4,38.3,23.3l8.4-8.4Z" inkscape:connector-curvature="0" sodipodi:nodetypes="ccccccc"/>
    <path id="path8017" class="cls-9" d="M234.3,264.3c19.4-9.7,36-21.6,60.7-28.1-27.6,11.1-42.6,21.6-56.1,36.7-1.5,3.2.2,6.4.8,9.6l-13.6-24.9c3.2,3.6,5.7,7.9,8.2,6.8h0Z" inkscape:connector-curvature="0" sodipodi:nodetypes="cccccc"/>
    <path id="path8015" class="cls-8" d="M214.4,233c5.6,8.9,36.5-19.4,52.6-30.6l-29.9,26.1,29.1-18.2c-17.1,14.3-37.1,23.7-43.8,38.9l-8.1-16.2Z" inkscape:connector-curvature="0" sodipodi:nodetypes="cccccc"/>
    <path class="cls-2" d="M284.9,320.9c-.6,0-1.5-.2-2.6-.4-33.3-5-65-84.8-67.8-91.9l22.5-30.6c.2-.1.3-.3.4-.6l-1.8-.8c.2-.2.4-.3.6-.4-.3,0-2,0-4-.1-42.7-2.2-80.3,1.7-111.8,11.5-1.9.6-3.8,1.2-5.6,1.8l-1.9,2.8c2.6-.9,5.3-1.9,8.1-2.7,25.6-8,55.3-12,88.6-12s14.9.2,22.5.6c1,0,1.8,0,2.4.1l-22.2,30.2.2.5c1.2,3.3,28.9,76,61.5,91.2-21.9-2.1-71.7-6.6-120.8-6.7h-1.6c-43.7,0-87.7,4.9-111.5,7.5-7.8.9-13.7,1.5-16.5,1.6,4.9-53.5,34.6-90.5,88.2-109.9l-2-1.4c-22.2,8.3-40.5,19.7-54.5,34.1-19.7,20.3-31.1,46.6-33.8,78.2v1c0,0,1,0,1,0h.3c2.4,0,8.5-.7,17.5-1.7,23.8-2.6,67.7-7.5,111.3-7.5h1.6c53.5.1,108,5.5,125.9,7.2,3.3.3,5.2.5,6.2.5,0,0,0,0,0,0h0c1.2,0,1.2-.3,1.3-.8.1-1-.7-1.1-1.7-1.3Z"/>
    <path class="cls-4" d="M282.1,321.5c-35.7-5.3-68.7-93.1-68.7-93.1l23.1-31.4c-.2.8-64.5-6.7-122.6,13.6l-1.5,2.1-1.6-1.1c-43.5,16-82.9,48.1-88.3,111.7h0c7.1.2,69.4-9.3,130.6-9.1,74.2.2,149.7,10.3,128.9,7.2Z"/>
    <path id="path7927" class="cls-5" d="M77,258.7c3.2,4,1.3,9-4.2,11.3s-12.8,1-16.1-3-1.4-9,4.2-11.3,12.8-1,16.1,2.9" sodipodi:cx="181.07133" sodipodi:cy="583.72504" sodipodi:end="5.7459523" sodipodi:open="true" sodipodi:rx="25.182831" sodipodi:ry="16.605751" sodipodi:start="5.7579084" sodipodi:type="arc"/>
    <path id="path7931" class="cls-5" d="M97.6,239.8c3.2,3.9,1.3,9-4.2,11.3s-12.8,1-16.1-3-1.4-9,4.2-11.3,12.8-1,16.1,2.9" sodipodi:cx="225.15851" sodipodi:cy="545.87122" sodipodi:end="5.7459523" sodipodi:open="true" sodipodi:rx="25.182831" sodipodi:ry="16.605751" sodipodi:start="5.7579084" sodipodi:type="arc"/>
    <path id="path7933" class="cls-5" d="M110.8,260.1c3.2,4,1.3,9-4.2,11.3s-12.8,1-16.1-3-1.4-9,4.2-11.3,12.8-1,16.1,2.9" sodipodi:cx="253.56134" sodipodi:cy="586.63733" sodipodi:end="5.7459523" sodipodi:open="true" sodipodi:rx="25.182831" sodipodi:ry="16.605751" sodipodi:start="5.7579084" sodipodi:type="arc"/>
    <path id="path7935" class="cls-5" d="M93.6,278.9c3.2,4,1.3,9-4.2,11.3s-12.8,1-16.1-3-1.4-9,4.2-11.3,12.8-1,16.1,2.9" sodipodi:cx="216.63756" sodipodi:cy="624.18146" sodipodi:end="5.7459523" sodipodi:open="true" sodipodi:rx="25.182831" sodipodi:ry="16.605751" sodipodi:start="5.7579084" sodipodi:type="arc"/>
    <path id="path7937" class="cls-5" d="M61,278.6c3.3,4,1.3,9-4.2,11.3s-12.8,1-16.1-3c-3.3-3.9-1.4-9,4.2-11.3s12.8-1,16.1,2.9" sodipodi:cx="146.91129" sodipodi:cy="623.58832" sodipodi:end="5.7459523" sodipodi:open="true" sodipodi:rx="25.182831" sodipodi:ry="16.605751" sodipodi:start="5.7579084" sodipodi:type="arc"/>
    <path id="path7939" class="cls-5" d="M81,300.4c3.2,4,1.3,9-4.2,11.3s-12.8,1-16.1-3-1.4-9,4.2-11.3,12.8-1,16.1,2.9" sodipodi:cx="189.74719" sodipodi:cy="667.3999" sodipodi:end="5.7459523" sodipodi:open="true" sodipodi:rx="25.182831" sodipodi:ry="16.605751" sodipodi:start="5.7579084" sodipodi:type="arc"/>
    <path id="path7941" class="cls-5" d="M53,299.6c3.2,4,1.3,9-4.2,11.3s-12.8,1-16.1-3-1.4-9,4.2-11.3,12.8-1,16.1,2.9" sodipodi:cx="129.74399" sodipodi:cy="665.66467" sodipodi:end="5.7459523" sodipodi:open="true" sodipodi:rx="25.182831" sodipodi:ry="16.605751" sodipodi:start="5.7579084" sodipodi:type="arc"/>
    <path id="path7989" class="cls-5" d="M193.1,265.8c3.2,4,1.4,9-4.2,11.3s-12.8,1-16.1-3-1.4-9,4.1-11.3,12.8-1,16.1,2.9" sodipodi:cx="429.85782" sodipodi:cy="597.99426" sodipodi:end="5.7459523" sodipodi:open="true" sodipodi:rx="25.182831" sodipodi:ry="16.605751" sodipodi:start="5.7579084" sodipodi:type="arc"/>
    <path id="path7991" class="cls-5" d="M204.5,283.4c3.2,4,1.4,9-4.2,11.3s-12.8,1-16.1-3-1.4-9,4.1-11.3c5.6-2.3,12.8-1,16.1,2.9" sodipodi:cx="454.26923" sodipodi:cy="633.2243" sodipodi:end="5.7459523" sodipodi:open="true" sodipodi:rx="25.182831" sodipodi:ry="16.605751" sodipodi:start="5.7579084" sodipodi:type="arc"/>
    <path id="path7993" class="cls-5" d="M218.8,303.1c3.2,4,1.4,9-4.2,11.3s-12.8,1-16.1-3-1.4-9,4.1-11.3,12.8-1,16.1,2.9" sodipodi:cx="484.79028" sodipodi:cy="672.74316" sodipodi:end="5.7459523" sodipodi:open="true" sodipodi:rx="25.182831" sodipodi:ry="16.605751" sodipodi:start="5.7579084" sodipodi:type="arc"/>
    <path id="path7995" class="cls-5" d="M223.1,265c3.2,4,1.4,9-4.2,11.3s-12.8,1-16.1-3-1.4-9,4.1-11.3,12.8-1,16.1,2.9" sodipodi:cx="494.13525" sodipodi:cy="596.41248" sodipodi:end="5.7459523" sodipodi:open="true" sodipodi:rx="25.182831" sodipodi:ry="16.605751" sodipodi:start="5.7579084" sodipodi:type="arc"/>
    <path id="path7997" class="cls-5" d="M235,284.4c3.2,4,1.4,9-4.2,11.3s-12.8,1-16.1-3-1.4-9,4.1-11.3c5.6-2.3,12.8-1,16.1,2.9" sodipodi:cx="519.4668" sodipodi:cy="635.16718" sodipodi:end="5.7459523" sodipodi:open="true" sodipodi:rx="25.182831" sodipodi:ry="16.605751" sodipodi:start="5.7579084" sodipodi:type="arc"/>
    <path id="path7999" class="cls-5" d="M248.3,301.9c3.2,4,1.4,9-4.2,11.3s-12.8,1-16.1-3-1.4-9,4.1-11.3c5.6-2.3,12.8-1,16.1,2.9" sodipodi:cx="547.97375" sodipodi:cy="670.39105" sodipodi:end="5.7459523" sodipodi:open="true" sodipodi:rx="25.182831" sodipodi:ry="16.605751" sodipodi:start="5.7579084" sodipodi:type="arc"/>
    <path id="path8001" class="cls-5" d="M214.2,244.5c3.2,3.9,1.4,9-4.2,11.3s-12.8,1-16.1-3-1.4-9,4.1-11.3,12.8-1,16.1,2.9" sodipodi:cx="475.02408" sodipodi:cy="555.2851" sodipodi:end="5.7459523" sodipodi:open="true" sodipodi:rx="25.182831" sodipodi:ry="16.605751" sodipodi:start="5.7579084" sodipodi:type="arc"/>
    <path id="path8003" class="cls-5" d="M186,243.6c3.2,3.9,1.4,9-4.2,11.3s-12.8,1-16.1-3-1.4-9,4.1-11.3c5.6-2.3,12.8-1,16.1,2.9" sodipodi:cx="414.67581" sodipodi:cy="553.47491" sodipodi:end="5.7459523" sodipodi:open="true" sodipodi:rx="25.182831" sodipodi:ry="16.605751" sodipodi:start="5.7579084" sodipodi:type="arc"/>
    <path id="path8005" class="cls-5" d="M203.2,223.6c3.2,3.9,1.4,9-4.2,11.3s-12.8,1-16.1-3-1.4-9,4.1-11.3c5.6-2.3,12.8-1,16.1,2.9" sodipodi:cx="451.50793" sodipodi:cy="513.3667" sodipodi:end="5.7459523" sodipodi:open="true" sodipodi:rx="25.182831" sodipodi:ry="16.605751" sodipodi:start="5.7579084" sodipodi:type="arc"/>
    <path id="path8007" class="cls-5" d="M187.8,203.6c3.2,3.9,1.4,9-4.2,11.3s-12.8,1-16.1-3-1.4-9,4.1-11.3,12.8-1,16.1,2.9" sodipodi:cx="418.53839" sodipodi:cy="473.29059" sodipodi:end="5.7459523" sodipodi:open="true" sodipodi:rx="25.182831" sodipodi:ry="16.605751" sodipodi:start="5.7579084" sodipodi:type="arc"/>
    <path id="path8009" class="cls-5" d="M217.5,204.7c3.2,3.9,1.4,9-4.2,11.3s-12.8,1-16.1-3-1.4-9,4.1-11.3,12.8-1,16.1,2.9" sodipodi:cx="482.06592" sodipodi:cy="475.40289" sodipodi:end="5.7459523" sodipodi:open="true" sodipodi:rx="25.182831" sodipodi:ry="16.605751" sodipodi:start="5.7579084" sodipodi:type="arc"/>
    <path id="path8150" class="cls-5" d="M121.9,223.1c3.2,3.9,1.3,9-4.2,11.3s-12.8,1-16.1-3-1.4-9,4.2-11.3c5.6-2.3,12.8-1,16.1,2.9" sodipodi:cx="277.31912" sodipodi:cy="512.4115" sodipodi:end="5.7459523" sodipodi:open="true" sodipodi:rx="25.182831" sodipodi:ry="16.605751" sodipodi:start="5.7579084" sodipodi:type="arc"/>
    <path id="path8146" class="cls-5" d="M137.8,242.8c3.2,3.9,1.4,9-4.2,11.3-5.6,2.3-12.8,1-16.1-3s-1.4-9,4.2-11.3,12.8-1,16.1,2.9" sodipodi:cx="311.26236" sodipodi:cy="551.79639" sodipodi:end="5.7459523" sodipodi:open="true" sodipodi:rx="25.182831" sodipodi:ry="16.605751" sodipodi:start="5.7579084" sodipodi:type="arc"/>
    <path class="cls-3" d="M259.9,163.8h-.2c0-.1,0-.3,0-.3-.5-2.1-1.3-4.2-2.4-6.3l-.2-.3.2-.2c2.2-2.2,4.2-4.9,6-8,.9-1.5,1.8-3.1,2.6-4.8-5.5-.3-11.2.3-16.9,1.8h-.3c0,0-.2-.1-.2-.1-.4-.4-.8-.8-1.2-1.1-.4-.3-.8-.7-1.3-1.3l-.2-.2v-.3c2-5.4,3.2-11,3.7-16.8,0-.2,0-.3.1-.5-4.1,2.7-8.5,4.1-13,3.9h-.6s1.3-4.7,1.3-4.7c.2-.9.5-2,.8-3.2v-.2c0,0,.3,0,.3,0,3.5-1.8,7.3-2.7,11.7-2.9-.8-1-1.7-2.1-2.8-3.5-1.9-2.6-3.8-5-5.8-7l-.2-.2v-.3c.2-.4.3-.8.4-1.2.5-1.7.8-3.2,1.1-4.7v-.3c0,0,.3,0,.3,0,.6-.2,1.1-.4,1.7-.6,4.3-1.7,8-4.3,11.1-7.7-1.4-.8-2.8-1.5-4.2-2-3.3-1.3-6.8-1.8-10.2-1.7h-.3s-.1-.3-.1-.3c-.7-1.3-1.7-2.8-2.8-4.3l-.2-.2v-.3c1.9-4.4,3-9.7,3.2-15.9-2.6,1.1-5.1,2.5-7.8,4.2-1.4,1-2.9,1.8-4.4,2.5l-.3.2-.4-.5c-1.9-2-4.5-4.5-6.3-6.1l-.2-.2v-.3c.2-1.2.4-2.1.7-2.7v-.2c1.5-1.1,2.9-2.2,4.4-3.2-1.7-.9-4-2.5-7.5-5.2l-.2-.2v-.3c.3-1.4.5-3.4.7-5.8v-.3s.2-.1.2-.1c2.6-1.5,5.3-2.8,8.2-4,2.4-1.1,4.5-2.3,6.5-3.8-4.8-3.5-9.4-5.7-13.8-6.5h-.4c0,0,0-.5,0-.5,0-.8,0-1.5-.1-1.9-.1-1.1-.4-2.3-.9-3.5v-.2c0,0,0-.2,0-.2.6-1,1.1-1.9,1.5-2.9,1.4-3.4,2-7.4,1.7-11.6,0-.1,0-.3,0-.5-4.1,1.5-7.8,4-10.9,7.5l-.2.2h-.3c-2.2-1-4.6-1.5-7.4-1.8h-.3s-.1-.3-.1-.3c-1.6-3.8-3.8-7.8-6.6-11.7-.5,1.1-1,2.2-1.5,3.4-1.2,2.8-2.2,5.7-3.1,8.7v.3c0,0-.4,0-.4,0-2.7.4-5.5,1.1-8.2,1.9h-.3c0,0-.5-.5-.5-.5-.2-.3-.5-.5-.7-.8-2.6-2.6-5.4-5.1-8.2-7.4-.6,4.1-.9,8.3-1,12.3v.3s-.3.1-.3.1c-1.5.6-2.9,1-3.9,1.3-1.8.6-4.2,1.4-6,2.1h-.3c0,.1-.2,0-.2,0-1-.9-1.7-1.6-2.1-2.1h0c0-.1,0-.2,0-.2,0-.4,0-.8-.1-1.2-1,.8-2.3,1.6-4,2.5l-.3.2-.9-.9c-2.3-2.5-4.4-4.6-6.4-6.3h-.2c0-.1,0-.4,0-.4,0-3.1-.1-6.1-.1-9.4,0-1,0-2,0-3.1-3.2,1.8-6,4-8.1,6.4l-.3.3-.4-.2c-.6-.3-1.1-.6-1.7-.8-3.3-1.6-6.1-1.3-9.4.8l-.3.2-.3-.2c-2.3-1.9-5.2-3.4-8.5-4.7,0,3.7.5,7.4,1.6,11.5v.2c0,0,0,.2,0,.2-1.8,2.2-3.7,5-5.7,8.3l-.2.3h-.3c-3.5-.5-7.3-.7-11.5-.7.8,1.6,1.7,3.2,2.7,4.9,1.2,2.1,2.3,4,3.4,5.8v.2c.1,0,0,.2,0,.2-1,2-2,4-2.9,6l-1.2,2.6h-.8c-3.3-.5-7.4-1.3-10.6-3.4.8,2.4.9,5.1.8,8.4-.1,3.2-.1,6.6.3,9.7v.3s-.2.2-.2.2c-1.1.9-2.2,1.6-3.3,2.2h-.2c0,0-.2,0-.2,0-.6-.2-1.2-.5-1.7-.9-1.6-1.2-2.8-2.6-3.7-3.8-.9-1.2-1.7-2.3-2.5-3.5-1.5-2.1-3-4.3-4.8-6.4-.4-.5-.8-.9-1.2-1.3-1.7,4.3-2.5,7.8-2.7,11-.1,2.3.2,4.6,1,6.4l.2.6h-.7c-2.5.4-4.2.8-5.6,1.5h-.1c0,0-.2,0-.2,0-3.8-.4-7.7-1.1-11.3-1.7l-1.3-.2c.5,1.1.9,2.2,1.4,3.3.8,1.9,1.6,3.9,2.5,5.8v.3c.1,0,0,.2,0,.2-3.7,3.8-5.8,7.3-6.2,10.4v.3s-.3,0-.3,0c-1.1.3-2.1.8-3.1,1.3-1.8,1-3.6,2.5-5.3,4.3,1.5,1.1,3.1,2,4.8,2.7,1.8.7,3.7,1.2,5.8,1.5h.2s.1.2.1.2c.6,1,1.2,2.1,1.7,3.1,1.2,2.1,2.2,3.7,3.3,5.4l.2.3-.2.3c-.8,1.4-1.6,2.8-2.4,4.1-.9,1.5-1.7,2.9-2.5,4.2,5.1.4,9.6,1.4,14,3.1h.1c0,0,4.4,5.5,4.4,5.5l-.2.3c-.4.7-.8,1.2-1.1,1.6h-.1c0,.1-.2.2-.2.2-4.1.9-8.4,1.2-12.8.9,1.5,3.1,3.4,8,5.7,14.3v.3c0,0,0,.2,0,.2-.2.2-.3.4-.5.6l-.3.4h-.2c-2.2,0-4.5-.3-6.7-.7-4.8-1.1-9.3-1.6-13.7-1.4,1,2.2,2.1,4.3,3.2,6.3,2.4,4.1,5.2,7.4,8.1,9.8l.3.2-.2.4c-.2.5-.4.9-.6,1.4v.2c-.1,0-.4,0-.4,0-1.1.2-2.1.4-3.1.7-4.2,1.2-8,3.8-11,7.4l-.2.2h-.3c-7.1-1-13-2-21.1-4.5,2.5,1.2,4.6,2.3,6.5,3.3,5.2,2.7,9.3,4.9,20.2,8.7v1c-11.9.9-19.4.4-28.1-.2-2-.1-4-.3-6.1-.4,6.1,1.2,11.5,2.6,16.8,3.9,7.6,1.9,14.8,3.7,23.3,4.9h.3s.1.3.1.3c.7,1.9,1.8,3.7,3.5,5.7,4.7,5.6,11.9,9.5,22.9,12.1,5.6,1.3,16.4,2.8,26.3,3.7l-32.1-21.6,27,4.7-16.9-13.8c-1.6.2-3.3.4-4.9.6-4.1.5-8.2,1-12.1,1.1h0c-1.6,0-2.8-1.1-3-2.6-.2-1.5.7-2.9,2.2-3.3l13.3-3.3-12.3-.8c-1.5-.1-2.7-1.3-2.8-2.9,0-1.5,1.1-2.9,2.6-3,2.4-.3,4.8-.5,7.1-.8,3.7-.4,7.6-.8,11.3-1.3-1.9-1.1-4-2.2-5.6-3.1h-.1c-8.3-4.6-8.4-4.7-8.4-6.7,0-1.1.7-2.2,1.8-2.6,1.6-.7,2.9-.2,7.6,1.9,5.5,2.4,14.6,6.4,19.9,5.7,1-.1,2,.2,2.7,1s.9,1.9.6,2.8c-1.3,4.1-2.4,10-1.4,13.9.3,1,0,2.1-.8,2.9s-1.8,1-2.9.8c-2.6-.7-5.8-.8-9.3-.6l38.3,14.8-11.5,16.9c8.6.1,22-.1,28.2-.6h1c3.8-.4,12.2-1.1,19.5-1.8h1.4c0-.1.4.6.4.6l.3-.8h.3c24.8-2.4,28.9-2.7,42.9-3.2,9.5-.4,10-.4,13.3-1.6,8.9-3.1,16.6-6.7,22.6-10.9l.3-.2.3.2c2.2,1.7,4.4,3.2,6.6,4.4.2-3.5.1-6.8-.2-9.9v-.2s.1-.2.1-.2c1.1-1.1,2.1-2.2,2.9-3.2,1.7-2.2,2.9-4.1,3.6-6v-.3c.1,0,.5,0,.5,0,1.8,0,3.4,0,5.1-.4,2-.4,3.9-1.1,5.9-2-2.9-3.7-6.5-6.7-10.6-8.5ZM236.8,104.5h0c.7,1.4.2,3-1.1,3.8l-5.6,3.4,1.4-.2c1.4-.2,2.8.7,3.2,2.1.4,1.4-.2,2.9-1.5,3.5l-.9.5h1.8c1.5-.2,2.8.8,3.1,2.3.3,1.5-.6,2.9-2,3.4l-15.9,5c-.8.2-1.7.1-2.4-.3-.7-.4-1.2-1.1-1.4-2-.5-2.3-1.3-3.6-2.8-4.8.6.7,1,1.6,1.1,2.6.1,1.3-.2,2.6-1,3.6-.8,1-2,1.6-3.3,1.8-2.2.2-4.1,1.9-4.7,4.4-.7,2.5.1,5.2,2,6.8,1.7,1.4,4,1.6,5.9.5,2-1.2,3.1-3.8,2.8-6.3-.4-2.7,1.5-5.1,4.2-5.4,1.3-.2,2.6.2,3.6,1,1,.8,1.7,1.9,1.9,3.2.8,6.4-2.1,12.6-7.4,15.9-2.3,1.4-5,2.2-7.7,2.2s-6.9-1.2-9.5-3.5c-4.8-4-6.8-10.6-5.1-16.7,1.7-6.3,6.8-10.8,13-11.5.7,0,1.3,0,2,.2-.8-.4-1.6-.9-2.5-1.4l-.9-.5c-1-.6-1.6-1.7-1.5-2.8-2.8,2.7-6.6,4.3-10.5,4.3h0c-1.6,0-3.2-.3-4.7-.8-5.9-2-10-7.5-10.4-14-.4-6.4,2.8-12.5,8.3-15.3,2.4-1.2,5.3-.3,6.6,2,.6,1.2.7,2.5.3,3.7s-1.2,2.2-2.4,2.9c-2.1,1.1-3.3,3.5-3.2,6.1.2,2.5,1.7,4.7,3.9,5.4,2,.7,4.3,0,5.7-1.8,1.5-2,1.8-4.8.6-7.1-.6-1.2-.7-2.5-.3-3.7.4-1.2,1.3-2.2,2.4-2.8,1.2-.6,2.5-.7,3.7-.3,1.2.4,2.2,1.3,2.8,2.4,2.6,5.2,2.3,11.5-.9,16.3l25.7-9.4c1.4-.5,3,.1,3.6,1.5ZM209,78.1l4.3-4.9c.8-.9,2.2-1.2,3.3-.6,1.1.6,1.7,1.8,1.4,3l-1.5,6,6.7-3.5c1.1-.6,2.5-.3,3.3.7.8,1,.8,2.4,0,3.4l-3.7,4.4,8.8.5c1.3,0,2.4,1.1,2.5,2.4.1,1.3-.7,2.5-2,2.8l-4.8,1.2,5.1,3.1c1.2.8,1.6,2.3.9,3.6s-2.3,1.7-3.6,1.1c-4.6-2.4-8.8-2.8-13.8,3.1-.5.6-1.2.9-2,.9s-.7,0-1-.2c-1.1-.4-1.7-1.5-1.6-2.7.9-11.5-3.3-12.6-9.6-14.1l-.9-.2c-.8-.2-1.4-.7-1.8-1.5-.3-.7-.3-1.6,0-2.3,2.1-4.3,2.5-7.4,2.9-10.7.2-1.5.4-3.1.8-4.8.3-1.2,1.4-2.1,2.7-2.1,1.3,0,2.4,1,2.6,2.3l1.4,8.8ZM172.3,43.3c4.6-.5,4.6-2.3,4.8-6.3,0-.8,0-1.5.1-2.2.1-1.2,1-2.2,2.2-2.4s2.4.4,2.9,1.4l2.1,4,1.5-5.4c.4-1.2,1.5-2.1,2.8-2s2.3,1.1,2.5,2.4l.6,4.5,2.6-4.6c.7-1.2,2.1-1.7,3.3-1.2,1.2.5,2,1.8,1.7,3.1l-1.1,5,3.4-2.9c1-.8,2.4-.9,3.5,0,1,.8,1.3,2.2.7,3.4l-4.8,8.8c3.1,2.4,5.2,5.3,6.2,8.8.3,1.1-.1,2.4-1.1,3-.4.3-.9.4-1.5.4s-1.3-.2-1.8-.7c-4.8-4.1-21.1-10.4-30.7-11.8-1.4-.2-2.4-1.4-2.3-2.7,0-1.4,1.1-2.5,2.5-2.7ZM166.3,58.6c2.1-1.7,5.2-1.3,6.8.8s1.3,5.2-.8,6.8c-1.9,1.5-2.7,4.2-2.1,6.7.6,2.4,2.4,4.2,4.6,4.5,2.1.3,4.3-.9,5.4-3,1.2-2.3,1-5.1-.6-7.1-.8-1-1.1-2.3-.9-3.6.2-1.3.9-2.4,1.9-3.2,2.1-1.6,5.2-1.2,6.8,1,3.8,5,4.3,11.9,1.4,17.5-2.7,5.1-7.8,8.3-13.3,8.3s-1.3,0-2-.1c-6.2-.8-11.2-5.5-12.8-11.8-1.5-6.2.6-12.7,5.5-16.6ZM151.9,99.3h0c-1.7,1.7-2.3,4.5-1.4,6.9.8,2.3,2.8,3.8,5,3.8h0c2.2,0,4.2-1.4,5.1-3.7.9-2.4.4-5.2-1.3-7-.9-.9-1.4-2.2-1.3-3.5,0-1.3.6-2.5,1.5-3.4s2.2-1.4,3.5-1.3c1.3,0,2.5.6,3.4,1.5,4.3,4.5,5.6,11.3,3.2,17.2-2.4,6-7.9,9.8-14,9.8h-.2c-6.3,0-11.8-4.1-14-10.2-2.2-6-.7-12.7,3.7-17.1,1.9-1.9,5-1.9,6.9,0,1.9,1.9,1.9,5,0,6.9ZM151.3,74.2c-1.6,6.3-6.7,10.9-12.9,11.7-.6,0-1.2.1-1.8.1-5.6,0-10.7-3.2-13.4-8.4-2.9-5.6-2.3-12.5,1.6-17.5,1.6-2.1,4.7-2.5,6.8-.9,2.1,1.6,2.5,4.7.9,6.8-1.5,2-1.8,4.8-.6,7.1,1.1,2.1,3.2,3.3,5.3,3.1,2.2-.3,4-2,4.7-4.4.6-2.5-.2-5.2-2.1-6.7-1-.8-1.6-2-1.8-3.3-.1-1.3.2-2.6,1.1-3.6,1.7-2.1,4.8-2.4,6.8-.7,4.8,3.9,6.9,10.5,5.3,16.7ZM112.2,107.8c1.5,1.7,3.8,2.3,5.8,1.5,2.1-.9,3.6-3.2,3.6-5.7,0-2.6-1.3-4.9-3.4-5.9-1.2-.5-2.1-1.5-2.5-2.7s-.4-2.5.1-3.7c1.1-2.4,4-3.5,6.4-2.4,5.7,2.6,9.2,8.4,9.1,14.9-.1,6.5-3.9,12.2-9.7,14.5-1.7.7-3.6,1.1-5.5,1.1-4.3,0-8.4-1.9-11.3-5.2-4.1-4.7-5.1-11.5-2.6-17.3,1.1-2.4,3.9-3.6,6.4-2.5,2.4,1.1,3.6,3.9,2.5,6.4-1,2.4-.6,5.2,1,7.1ZM119.9,53h0c.5-1.2.9-2.3,1.4-3.3,2.2-5.1,3.7-8.4,1.8-17.1-.3-1.3.5-2.5,1.7-2.9,1.2-.4,2.6.3,3,1.5l.8,2.1.2-2.2c.1-1.2,1.1-2.1,2.3-2.2,1.2,0,2.3.7,2.6,1.9l.9,3.7,1.7-4.1c.5-1.1,1.8-1.8,3-1.4s2,1.5,1.8,2.8l-.6,3.7,2.2-2.7c.8-1,2.1-1.2,3.2-.6,1.1.6,1.5,2,1,3.1l-.9,2.1c.9-.7,2.3-.7,3.2.1.9.9,1.1,2.3.3,3.4-3.8,4.8-2,7.3.2,9.2,1,.8,1.2,2.2.4,3.3-.7,1.1-2.1,1.4-3.2.8-7.6-4.3-14.7-2.4-23.7,2-.3.2-.7.3-1.1.2-.6,0-1.2-.2-1.7-.7-.8-.7-1-1.8-.6-2.7ZM103.4,82.5c1.5-4,1.5-8,1.4-12.2,0-3.4,0-7,.8-10.6.3-1.2,1.3-2.1,2.6-2.1s2.3.9,2.6,2.1c.3,1.3.5,2.6.8,3.8,1.2,6.2,2.3,11.6,6.4,16.5.8.9.8,2.3,0,3.3-.8,1-2.1,1.3-3.2.8-.9-.4-1.1-.4-2.7.2-1.3.5-3.1,1.2-5.9,1.6-.1,0-.3,0-.4,0-.8,0-1.5-.4-2-1-.6-.7-.8-1.7-.4-2.6ZM70.8,108c-.5-1.3.1-2.8,1.4-3.4,2.5-1.2,5-2,7.2-2.7,1.3-.4,2.5-.8,3.5-1.2l-14.4-2.3c-1.4-.2-2.4-1.5-2.3-2.9s1.3-2.5,2.7-2.5h12.6l-8-4.4c-1.2-.7-1.7-2.2-1.2-3.5s2-1.9,3.3-1.5l13.4,4.4-4.3-5.9c-.8-1.1-.7-2.6.3-3.5,1-.9,2.5-1,3.6-.2,1.7,1.3,3,2.6,4.3,3.8,2.8,2.8,5,5,10.7,6,1,.2,1.8.9,2.1,1.9.3,1,0,2.1-.7,2.8-3.8,3.7-3.9,3.9-4.1,12.4,0,.9-.5,1.8-1.3,2.3-.8.5-1.8.5-2.6,0-4.9-2.5-15.3.2-22.2,1.9l-.7.2c-.2,0-.4,0-.7,0-1.1,0-2.2-.7-2.6-1.8ZM75.5,116.9c-.8-.3-1.3-1-1.5-1.8-.2-.8,0-1.7.5-2.3,2-2.6,8-1.7,18.7,2.9.7.3,1.2.8,1.5,1.5.3.7.2,1.4,0,2.1l-1.3,2.8c-.3.7-.8,1.2-1.5,1.4-.3.1-.6.2-.9.2s-.8,0-1.1-.2l-14.2-6.5ZM97.2,152.4c-2.1,0-4.1-.4-6-1.3-5.7-2.6-9.2-8.4-9.1-14.9,0-2.7,2.3-4.8,4.9-4.8h0c2.7,0,4.8,2.3,4.8,4.9,0,2.6,1.3,4.9,3.4,5.9,2,.9,4.2.4,5.8-1.2,1.7-1.8,2.2-4.6,1.2-7-.9-2.3-2.9-3.7-5.1-3.7-2.7,0-4.9-2.1-4.9-4.8,0-1.3.5-2.5,1.4-3.5s2.1-1.5,3.4-1.5h.2c6.2,0,11.7,3.8,14.1,9.8,2.3,5.9,1.1,12.7-3.2,17.2-2.8,3-6.8,4.7-10.9,4.7ZM129.2,181.2c-2.8,3-6.8,4.7-10.9,4.7s-4.1-.4-6-1.3c-5.7-2.6-9.2-8.4-9.1-14.9,0-2.7,2.2-4.8,4.9-4.8h0c2.7,0,4.8,2.3,4.8,4.9,0,2.6,1.3,4.9,3.4,5.9,2,.9,4.2.4,5.8-1.2,1.7-1.8,2.2-4.6,1.2-7-.9-2.3-2.9-3.7-5.1-3.7-1.3,0-2.5-.4-3.4-1.4-.9-.9-1.5-2.1-1.5-3.4s.5-2.5,1.4-3.5c.9-.9,2.1-1.5,3.4-1.5,6.2-.1,11.9,3.7,14.3,9.8,2.3,5.9,1.1,12.7-3.2,17.2ZM124.6,146.5c-4.1-4.7-5.1-11.5-2.6-17.3,1.1-2.4,3.9-3.6,6.4-2.5s3.6,4,2.5,6.4c-1,2.4-.6,5.2,1,7.1,1.5,1.7,3.8,2.3,5.8,1.5,2.1-.9,3.6-3.1,3.6-5.7,0-2.6-1.3-4.9-3.4-5.9-2.4-1.1-3.5-4-2.4-6.4,1.1-2.4,4-3.5,6.4-2.4,5.7,2.6,9.2,8.4,9.1,14.9-.1,6.5-3.9,12.2-9.7,14.5-1.7.7-3.6,1.1-5.5,1.1-4.3,0-8.4-1.9-11.3-5.2ZM169.4,176.1c-2.4,6-7.9,9.9-14,9.9h-.2c-6.3,0-11.8-4.1-14-10.2-2.2-6-.7-12.7,3.7-17.1.9-.9,2.1-1.4,3.4-1.4h0c1.3,0,2.5.5,3.4,1.4,1.9,1.9,1.9,5,0,6.9-1.7,1.7-2.3,4.5-1.4,6.9.8,2.3,2.8,3.8,5,3.8h0c2.2,0,4.2-1.4,5.1-3.7.9-2.4.4-5.2-1.3-7-1.8-1.9-1.8-5,.2-6.9.9-.9,2.2-1.4,3.5-1.3,1.3,0,2.5.6,3.4,1.5,4.3,4.5,5.6,11.3,3.3,17.2ZM168.6,150.5c-5.9-2-10-7.5-10.4-14-.4-6.4,2.8-12.5,8.3-15.3,1.1-.6,2.5-.7,3.7-.3,1.2.4,2.2,1.2,2.9,2.4.6,1.2.7,2.5.3,3.7-.4,1.2-1.2,2.2-2.4,2.9-2.1,1.1-3.3,3.5-3.2,6.1.2,2.5,1.7,4.7,3.9,5.4,2,.7,4.3,0,5.7-1.8,1.5-2,1.8-4.8.6-7.1-.6-1.2-.7-2.5-.3-3.7.4-1.2,1.3-2.2,2.4-2.8,2.4-1.2,5.3-.2,6.5,2.2,2.9,5.6,2.2,12.5-1.7,17.4-2.9,3.7-7.3,5.8-11.8,5.8-1.6,0-3.2-.2-4.7-.8ZM180.6,182c-4.8-4-6.8-10.6-5.1-16.7,1.7-6.3,6.8-10.8,13-11.5,1.3-.1,2.6.2,3.6,1s1.6,2,1.8,3.3c.1,1.3-.2,2.6-1,3.6-.8,1-2,1.6-3.3,1.8-2.2.2-4.1,1.9-4.7,4.4-.7,2.5.1,5.2,2,6.8,1.7,1.4,4,1.6,5.9.5,2-1.2,3.1-3.8,2.8-6.3-.2-1.3.2-2.6,1-3.6s1.9-1.7,3.2-1.9c1.3-.2,2.6.2,3.6,1,1,.8,1.7,1.9,1.9,3.2.8,6.4-2.1,12.6-7.4,15.9-2.3,1.4-5,2.2-7.7,2.2-3.5,0-6.9-1.2-9.5-3.5ZM241.4,169.3c-5.6,3.3-11.4,4.7-17,5.9,4,1.4,8.1,2.8,12.6,4.2,1.5.4,2.3,1.9,2,3.4s-1.7,2.5-3.2,2.4c-1.9-.2-3.8-.4-5.7-.7-3.5-.5-6.9-.9-9.9-.8,2.8,1.3,6.5,2.7,11.8,3.9,1.5.3,2.5,1.8,2.3,3.3-.2,1.5-1.5,2.6-2.9,2.6h-.1l-33.7-1.4c-1.5,0-2.7-1.3-2.8-2.8-.1-1.5.9-2.9,2.4-3.1,2.7-.5,6.4-4,9-8.3,1.8-3.1,2.1-5.1,1.9-5.6-.3-.9-.2-1.9.4-2.7.6-.8,1.5-1.2,2.4-1.2,6.3.1,12.9-1.3,19.4-2.7h.1c3-.7,6.1-1.3,9.1-1.8,1.4-.2,2.8.6,3.3,1.9.5,1.3,0,2.9-1.3,3.6ZM246.8,157.1l-23.6,3.6c-.1,0-.3,0-.4,0-1,0-2-.5-2.5-1.4-.6-1-.6-2.3,0-3.3l5.6-8c.8-1.1,2.3-1.6,3.6-1.1,1.1.5,2.1.9,3.1,1.3,3.7,1.7,6.3,2.9,13.5,2.9h.3c1.6,0,2.9,1.2,3,2.7.1,1.6-1,2.9-2.5,3.2Z"/>
    <path class="cls-1" d="M223.5,315c-24.6,1.2-47.7,1.6-71.8-4.6-14.1-1.4-41.6,8.8-70.6,9.1-19,1.6-19.1-6.7-12.3-18.4,10.1-17.1,53.1-41,86.3-61.1-12.1-.4-39.3-9-42.5-22.9-2.2-9.4.4-20.7,10.2-23.6,10.3-3.1,12.7-4,28.1.9,5.2.2,10.7,6.6,15.3,9.7,6.5,8,14.4,14.2,16.1,28.4-.2,6.3-.7,12.6-4.2,19-7.5,8.2-24.9,20.5-34.7,24.9,9.3-3.2,26.8-13.6,35.5-18.2,13.4,21.8,28.9,39.4,44.5,56.9h0Z" inkscape:connector-curvature="0" sodipodi:nodetypes="cccccccccccccc"/>
    <path id="path8013" class="cls-4" d="M137.3,203c-1,1.9-1.5,2.9-1.2,6,1.7,2.1,3,4.2,6.7,1.6,2.4-2.2,1.8-3.7,1.7-5.7-1.3-3-1.1-4.1-2.8-4.5-2.1-.4-3.2,1.8-4.3,2.7h0Z" inkscape:connector-curvature="0" sodipodi:nodetypes="cccccc"/>
    <path id="path8154" class="cls-7" d="M28.6,285.1c-9.4,2.3-16.8,8.7-22,13.1,5.7-1.9,12.4-4.2,18.5-4.9,3.2,0,3.1-.1,2.7,1.9l7.3-19.4c-1.6,1.8-3.9,8-6.4,9.3h0Z" inkscape:connector-curvature="0" sodipodi:nodetypes="cccccc"/>
    <path class="cls-2" d="M228.1,310.8c-16.5-18.4-31.1-35.4-43.8-56-.2-.3-.3-.5-.5-.7,4-7.2,4.6-14.3,4.8-21.4,0-.3,0-.7,0-1-1.6-13.6-8.2-21.1-14-27.6-1.2-1.4-2.4-2.7-3.5-4-.4-.5-.8-.9-1.3-1.2-1.1-.8-2.4-1.9-3.8-3-4-3.3-8.5-7.1-13.8-7.7-15.7-4.9-19.6-4.2-30.6-.8h-.5c-.9.4-1.7.7-2.4,1l8.2,3.2-14.4,21.3-6.6-4.5c-.2,3.4,0,6.8.8,10.1,2.8,12.4,18,20.5,31.4,24.6-.2.1-.4.2-.6.4-31.7,18.9-64.5,38.5-74,54.6-3.4,5.9-7.4,14.4-3.1,21.3,3.5,5.5,10.2,6.7,16.3,6.7s3.3,0,4.8-.2c15.9-.2,31.6-3.3,44.2-5.8,10.4-2,19.4-3.8,25.1-3.4,25.1,6.4,48.9,5.9,73.1,4.7,2.4-.1,4.5-1.6,5.4-3.8.9-2.2.5-4.8-1.1-6.5ZM153.2,304.3c-.3,0-.6-.1-.9-.2-7.5-.7-17.5,1.2-29.2,3.5-12.8,2.5-27.2,5.4-42.1,5.5-.2,0-.3,0-.4,0-6.9.6-9.1-.4-9.7-.7,0-.6,0-2.9,3.3-8.3,7.9-13.4,42.1-33.8,69.6-50.2,5-3,9.9-5.9,14.6-8.7,2.4-1.4,3.5-4.2,2.8-6.9-.7-2.7-3.1-4.6-5.8-4.6-12.3-.4-34.5-9-36.6-18.1-1.3-5.4-.8-14.2,6-16.2l.5-.2c9.2-2.8,10.6-3.2,23.9,1,.5.2,1.1.3,1.7.3,1.5,0,5.2,3.2,7.2,4.9,1.3,1.1,2.7,2.2,4.1,3.2,1.1,1.3,2.2,2.5,3.2,3.7,5.2,5.9,9.6,10.9,10.9,20.4-.2,5.6-.7,10.4-3.1,15-7.1,7.4-23,18.8-32.1,22.9-3,1.4-4.4,4.9-3.2,8,1.2,3.1,4.6,4.7,7.8,3.6,7.5-2.6,19.3-9.1,28.7-14.4.9-.5,1.8-1,2.7-1.5,10.1,15.6,21.2,29.1,33.3,43-18.9.6-37.7,0-56.8-5Z"/>
    <path id="path8019" class="cls-6" d="M126.8,191.5l-49.6-19.1,22.8,18.6-27-4.7,39.4,26.5,14.4-21.3Z" inkscape:connector-curvature="0" sodipodi:nodetypes="cccccc"/>
    <path class="cls-10" d="M111.7,210.5"/>
  </g>
</svg>